<?xml version="1.0" standalone="no"?>
<!DOCTYPE svg PUBLIC "-//W3C//DTD SVG 20010904//EN"
 "http://www.w3.org/TR/2001/REC-SVG-20010904/DTD/svg10.dtd">
<svg version="1.0" xmlns="http://www.w3.org/2000/svg"
 width="650.000000pt" height="520.000000pt" viewBox="0 0 650.000000 520.000000"
 preserveAspectRatio="xMidYMid meet">

<g transform="translate(0.000000,520.000000) scale(0.100000,-0.100000)"
fill="#000000" stroke="none">
<path d="M1380 2735 l0 -305 155 0 155 0 0 40 0 40 -120 0 -120 0 0 105 0 105
80 0 80 0 0 35 0 35 -80 0 -80 0 0 85 0 85 120 0 120 0 0 40 0 40 -155 0 -155
0 0 -305z"/>
<path d="M1810 2861 c0 -170 1 -179 20 -184 17 -4 20 -14 20 -60 0 -46 3 -55
20 -60 11 -3 20 -12 20 -20 0 -8 9 -17 20 -20 16 -4 20 -14 20 -46 0 -40 1
-41 35 -41 34 0 35 1 35 41 0 32 4 42 20 46 11 3 20 12 20 20 0 8 9 17 20 20
17 5 20 14 20 64 0 52 2 59 20 59 19 0 20 7 20 180 l0 180 -35 0 -35 0 0 -165
c0 -158 -1 -165 -20 -165 -18 0 -20 -7 -20 -60 l0 -60 -45 0 -45 0 0 60 c0 53
-2 60 -20 60 -19 0 -20 7 -20 165 l0 165 -35 0 -35 0 0 -179z"/>
<path d="M2240 2735 l0 -305 155 0 155 0 0 40 0 40 -120 0 -120 0 0 105 0 105
80 0 80 0 0 35 0 35 -80 0 -80 0 0 85 0 85 120 0 120 0 0 40 0 40 -155 0 -155
0 0 -305z"/>
<path d="M2670 2735 l0 -305 35 0 35 0 0 225 0 225 25 0 c18 0 25 -5 25 -20 0
-13 7 -20 20 -20 13 0 20 -7 20 -20 0 -13 7 -20 20 -20 13 0 20 -7 20 -20 0
-13 7 -20 20 -20 19 0 20 -7 20 -165 l0 -165 35 0 35 0 0 305 0 305 -35 0 -34
0 -3 -82 c-3 -71 -6 -83 -21 -86 -12 -2 -20 4 -24 16 -3 11 -13 22 -24 25 -10
3 -19 12 -19 20 0 8 -9 17 -20 20 -12 3 -20 14 -20 26 0 14 -6 21 -20 21 -13
0 -20 7 -20 20 0 16 -7 20 -35 20 l-35 0 0 -305z"/>
<path d="M3100 3000 l0 -40 60 0 60 0 0 -265 0 -265 35 0 35 0 0 265 0 265 60
0 60 0 0 40 0 40 -155 0 -155 0 0 -40z"/>
<path d="M3530 2735 l0 -305 35 0 35 0 0 145 0 145 85 0 85 0 0 -145 0 -145
35 0 35 0 0 305 0 305 -35 0 -35 0 0 -125 0 -125 -85 0 -85 0 0 125 0 125 -35
0 -35 0 0 -305z"/>
<path d="M3960 3000 l0 -40 60 0 60 0 0 -225 0 -225 -60 0 -60 0 0 -40 0 -40
155 0 155 0 0 40 0 40 -60 0 -60 0 0 225 0 225 60 0 60 0 0 40 0 40 -155 0
-155 0 0 -40z"/>
<path d="M4390 2861 c0 -170 1 -179 20 -184 17 -4 20 -14 20 -60 0 -46 3 -55
20 -60 11 -3 20 -12 20 -20 0 -8 9 -17 20 -20 16 -4 20 -14 20 -46 0 -40 1
-41 35 -41 34 0 35 1 35 41 0 32 4 42 20 46 11 3 20 12 20 20 0 8 9 17 20 20
17 5 20 14 20 60 0 46 3 56 20 60 19 5 20 14 20 184 l0 179 -35 0 -35 0 0
-165 c0 -158 -1 -165 -20 -165 -18 0 -20 -7 -20 -60 l0 -60 -45 0 -45 0 0 60
c0 53 -2 60 -20 60 -19 0 -20 7 -20 165 l0 165 -35 0 -35 0 0 -179z"/>
<path d="M4820 2735 l0 -305 155 0 155 0 0 40 0 40 -120 0 -120 0 0 105 0 105
80 0 80 0 0 35 0 35 -80 0 -80 0 0 85 0 85 120 0 120 0 0 40 0 40 -155 0 -155
0 0 -305z"/>
</g>
</svg>
